<?xml version="1.0" encoding="iso-8859-1"?>
<!-- Generator: Adobe Illustrator 19.0.0, SVG Export Plug-In . SVG Version: 6.00 Build 0)  -->
<svg version="1.1" id="Layer_1" xmlns="http://www.w3.org/2000/svg" xmlns:xlink="http://www.w3.org/1999/xlink" x="0px" y="0px"
	 viewBox="0 0 512 512" style="enable-background:new 0 0 512 512;" xml:space="preserve">
<g>
	<g>
		<path d="M411.826,100.174V33.391h-66.783V0H166.957v33.391h-66.783v66.783H66.783v178.087h33.391V512h66.783v-33.391h-33.391
			V345.043h33.391v33.391h178.087v-33.391h33.391v133.565h-33.391V512h66.783V278.261h33.391V100.174H411.826z M278.261,278.261
			H244.87V133.565h-33.391v-33.391h66.783V278.261z"/>
	</g>
</g>
<g>
	<g>
		<rect x="166.957" y="445.217" width="33.391" height="33.391"/>
	</g>
</g>
<g>
	<g>
		<rect x="278.261" y="478.609" width="33.391" height="33.391"/>
	</g>
</g>
<g>
	<g>
		<rect x="200.348" y="478.609" width="33.391" height="33.391"/>
	</g>
</g>
<g>
	<g>
		<rect x="233.739" y="445.217" width="44.522" height="33.391"/>
	</g>
</g>
<g>
	<g>
		<rect x="311.652" y="445.217" width="33.391" height="33.391"/>
	</g>
</g>
<g>
</g>
<g>
</g>
<g>
</g>
<g>
</g>
<g>
</g>
<g>
</g>
<g>
</g>
<g>
</g>
<g>
</g>
<g>
</g>
<g>
</g>
<g>
</g>
<g>
</g>
<g>
</g>
<g>
</g>
</svg>
